<?xml version="1.0" standalone="no"?>
<!DOCTYPE svg PUBLIC "-//W3C//DTD SVG 20010904//EN"
 "http://www.w3.org/TR/2001/REC-SVG-20010904/DTD/svg10.dtd">
<svg version="1.0" xmlns="http://www.w3.org/2000/svg"
 width="460.000000pt" height="460.000000pt" viewBox="0 0 460.000000 460.000000"
 preserveAspectRatio="xMidYMid meet">
<metadata>
Created by potrace 1.11, written by Peter Selinger 2001-2013
</metadata>
<g transform="translate(0.000000,460.000000) scale(0.100000,-0.100000)"
fill="#000000" stroke="none">
<path d="M2127 4048 c-27 -36 -73 -132 -117 -242 -15 -39 -39 -96 -52 -126
-14 -30 -31 -71 -38 -90 -14 -36 -44 -110 -60 -145 -5 -11 -39 -94 -76 -185
-36 -91 -72 -178 -79 -195 -8 -16 -26 -61 -41 -100 -15 -38 -30 -74 -34 -80
-4 -5 -10 -23 -14 -39 -4 -15 -15 -47 -26 -70 -10 -22 -38 -88 -60 -146 -23
-58 -50 -124 -61 -147 -10 -23 -19 -46 -19 -51 0 -5 -12 -35 -26 -66 l-25 -56
-47 -1 c-111 -2 -193 -10 -233 -24 -108 -38 -182 -106 -231 -210 -34 -74 -38
-94 -42 -200 -7 -153 49 -253 189 -342 25 -16 43 -34 42 -43 -3 -16 -62 -171
-76 -198 -5 -10 -19 -48 -31 -87 -13 -38 -29 -82 -36 -96 -7 -15 -15 -37 -18
-50 -9 -47 -75 -206 -130 -312 -50 -98 -55 -114 -53 -163 4 -68 30 -99 85
-100 29 0 43 6 65 30 15 17 30 42 33 56 11 48 29 85 95 195 76 125 239 374
282 430 9 13 17 26 17 30 0 8 53 79 63 83 4 2 7 10 7 18 0 11 5 12 18 6 9 -5
67 -26 127 -47 61 -20 117 -39 125 -42 8 -4 24 -8 34 -10 30 -5 31 -9 11 -71
-10 -31 -20 -61 -22 -67 -1 -5 -26 -77 -54 -160 -61 -182 -109 -358 -109 -405
0 -45 37 -89 78 -94 54 -6 87 19 122 92 170 353 186 387 234 518 48 132 35
121 136 110 25 -2 81 -7 125 -10 44 -4 98 -9 120 -12 51 -7 432 -7 464 0 13 3
56 8 95 11 40 3 83 8 97 11 13 3 31 6 39 6 8 0 31 4 50 8 19 5 53 11 75 15 22
3 92 16 155 30 352 74 381 87 375 171 -3 51 -8 60 -45 79 -28 15 -76 15 -130
2 -120 -30 -385 -87 -426 -91 -28 -3 -57 -8 -65 -10 -18 -6 -94 -17 -214 -31
-99 -11 -430 -6 -565 9 -30 3 -82 8 -115 12 -54 5 -80 18 -70 34 6 9 14 56 21
120 3 30 7 69 9 85 2 17 11 48 20 70 9 22 20 49 24 60 33 81 77 191 101 250
36 90 94 226 125 293 14 29 25 55 25 59 0 3 16 40 36 82 35 74 56 121 58 131
1 3 14 31 29 62 15 31 27 59 27 62 0 2 13 33 29 68 16 35 42 92 59 128 16 36
42 92 57 125 81 174 95 207 115 264 11 35 22 85 24 112 2 41 -2 54 -26 84 -37
45 -87 55 -136 29 -19 -10 -67 -60 -108 -114 -40 -52 -77 -99 -82 -105 -4 -5
-19 -26 -32 -45 -14 -19 -29 -40 -35 -46 -31 -36 -45 -55 -45 -60 0 -3 -6 -11
-12 -18 -27 -28 -218 -304 -218 -315 0 -4 -9 -16 -20 -26 -11 -10 -20 -22 -20
-27 0 -4 -16 -30 -35 -57 -19 -26 -35 -51 -35 -55 0 -4 -5 -12 -11 -19 -15
-18 -159 -238 -159 -244 0 -3 -13 -22 -30 -43 -16 -21 -30 -42 -30 -47 0 -6
-8 -17 -18 -26 -17 -16 -21 -15 -56 2 -33 17 -92 41 -106 42 -25 3 -41 23 -35
42 3 12 7 27 9 32 2 6 8 24 15 40 7 17 29 71 48 120 20 50 39 92 42 95 3 3 7
14 9 25 2 11 23 68 48 126 24 59 44 110 44 113 0 4 9 28 21 54 32 75 36 83 64
157 15 39 32 84 39 100 25 57 89 220 103 260 8 22 21 54 28 70 57 124 143 368
160 450 5 21 8 91 6 113 -2 24 -40 12 -64 -20z m209 -1314 c-20 -38 -36 -72
-36 -77 0 -4 -12 -34 -26 -65 -15 -31 -44 -97 -66 -147 -22 -49 -48 -109 -59
-132 -10 -23 -19 -44 -19 -47 0 -3 -13 -33 -29 -68 -16 -35 -44 -100 -63 -146
l-35 -83 -53 60 c-29 32 -53 61 -54 64 0 3 22 40 49 83 58 90 249 382 265 404
18 26 109 163 132 198 35 55 31 28 -6 -44z m-1022 -641 c-6 -20 -15 -41 -37
-93 -8 -19 -29 -73 -46 -120 -18 -47 -36 -94 -41 -105 -5 -11 -14 -32 -20 -47
-5 -16 -14 -28 -18 -28 -18 0 -91 72 -99 98 -17 53 -1 167 31 214 19 29 97 91
104 83 2 -2 15 0 30 4 15 4 44 8 64 10 32 1 37 -1 32 -16z m294 -47 c13 -13
13 -18 -3 -43 -10 -15 -27 -36 -37 -47 -10 -11 -18 -23 -18 -28 0 -4 -14 -27
-30 -50 -17 -24 -42 -61 -57 -83 -122 -188 -135 -205 -154 -194 -11 5 -19 16
-19 24 0 16 49 155 60 170 4 6 15 35 25 65 10 30 25 71 33 90 9 19 16 37 17
40 1 3 5 14 10 25 4 11 14 34 21 52 l12 32 63 -19 c34 -11 69 -26 77 -34z
m237 -217 c22 -41 27 -65 28 -122 1 -40 -3 -81 -8 -92 -5 -11 -23 -58 -39
-105 -32 -89 -38 -94 -96 -78 -8 3 -31 8 -50 12 -35 7 -44 11 -112 40 -20 9
-43 16 -52 16 -9 0 -16 2 -16 5 0 6 190 293 246 372 l29 41 21 -19 c12 -11 34
-43 49 -70z"/>
</g>
</svg>
